<svg width="322" height="103" viewBox="0 0 322 103" fill="none" xmlns="http://www.w3.org/2000/svg">
<path d="M13.98 46V14.2H1.38V4H38.22V14.2H25.62V46H13.98ZM80.5894 40.48C76.2694 44.72 70.8894 46.84 64.4494 46.84C58.0094 46.84 52.6294 44.74 48.3094 40.54C44.0294 36.3 41.8894 31.12 41.8894 25C41.8894 18.92 44.0494 13.76 48.3694 9.52C52.7294 5.28 58.1294 3.16 64.5694 3.16C71.0094 3.16 76.3694 5.28 80.6494 9.52C84.9694 13.72 87.1294 18.88 87.1294 25C87.1294 31.08 84.9494 36.24 80.5894 40.48ZM64.5694 36.34C67.7294 36.34 70.2894 35.24 72.2494 33.04C74.2494 30.84 75.2494 28.16 75.2494 25C75.2494 21.88 74.2294 19.22 72.1894 17.02C70.1494 14.78 67.5694 13.66 64.4494 13.66C61.3294 13.66 58.7694 14.76 56.7694 16.96C54.8094 19.16 53.8294 21.84 53.8294 25C53.8294 28.12 54.8294 30.8 56.8294 33.04C58.8694 35.24 61.4494 36.34 64.5694 36.34ZM93.1927 46V4H130.813V46H119.173V14.2H104.833V46H93.1927Z" fill="white"/>
<path d="M138.72 92V50H150.24V73.64L166.5 50H177.36V92H165.84V68.36L149.58 92H138.72ZM215.975 100.4V92H184.775V50H196.415V81.8H210.755V50H222.395V81.8H227.135L225.815 100.4H215.975ZM262.322 100.4V92H231.122V50H242.762V81.8H257.102V50H268.742V81.8H273.482L272.162 100.4H262.322ZM274.11 92L291.99 49.7H303.21L321.09 92H308.61L305.55 84.5H289.35L286.35 92H274.11ZM292.77 75.44H302.19L297.51 63.5L292.77 75.44Z" fill="white"/>
<path d="M93.1826 46H104.84V92H93.1826L93.1826 46Z" fill="white"/>
<path d="M119.176 46H130.816V92H119.176V46Z" fill="white"/>
</svg>
