<svg width="18" height="18" viewBox="0 0 18 18" fill="none" xmlns="http://www.w3.org/2000/svg">
<path d="M10.2002 10.5449C12.2805 10.545 14.2404 11.2715 15.7188 12.5908C17.1898 13.9037 17.9999 15.6368 18 17.4707C18 17.7618 17.7316 17.9979 17.4004 17.998H0.599609C0.268429 17.9979 0 17.7618 0 17.4707C8.72583e-05 15.6368 0.810169 13.9037 2.28125 12.5908C3.7596 11.2715 5.71958 10.545 7.7998 10.5449H10.2002ZM9 0.00195312C11.9773 0.00213939 14.3994 2.13116 14.3994 4.74805C14.3994 7.36498 11.9774 9.49395 9 9.49414C6.02244 9.49414 3.59961 7.3651 3.59961 4.74805C3.59967 2.13104 6.02248 0.00195312 9 0.00195312Z" fill="#AAAAAD"/>
</svg>
