<svg viewBox="0 0 150 150" fill="none" xmlns="http://www.w3.org/2000/svg">
	<path fill="#EDEEF2" fill-rule="evenodd" clip-rule="evenodd"
		d="M50.2999 3.66682C50.4037 2.10983 51.6969 0.899963 53.2574 0.899963H59.1985C60.9131 0.899963 62.27 2.35035 62.156 4.06111L61.4304 14.9458C61.3762 15.7576 61.9874 16.4607 62.7983 16.5273C66.7178 16.8489 70.0316 17.2329 72.756 17.6146C78.5211 18.4223 82.41 23.4385 82.41 29.2599C82.41 31.1306 81.2129 32.7915 79.4382 33.383L77.4047 34.0609C77.0693 34.1727 76.8319 34.4725 76.8002 34.8247L76.032 43.3518C75.8765 45.078 74.5335 46.4335 72.8611 46.8883C63.4455 49.4486 56.475 58.0594 56.475 68.3433V71.3925C56.475 73.7819 56.0898 76.1556 55.3342 78.4223L42.5053 116.909C41.9985 118.429 40.5706 119.457 38.9685 119.414C33.5423 119.267 28.8725 118.786 25.083 118.218C18.1611 117.182 13.4599 111.272 12.8263 104.302L6.51011 34.8241C6.47813 34.4723 6.2409 34.1728 5.90576 34.061L3.87175 33.383C2.09703 32.7915 0.899963 31.1306 0.899963 29.2599C0.899963 23.4385 4.78883 18.4223 10.5539 17.6146C17.2642 16.6745 27.5504 15.7199 41.655 15.7199C43.8873 15.7199 46.0241 15.7439 48.0661 15.7878C48.8614 15.805 49.5314 15.195 49.5843 14.4013L50.2999 3.66682ZM19.6732 45.2316C19.0325 45.1077 18.5571 44.572 18.498 43.9222L17.8039 36.2865C17.7188 35.3509 18.5118 34.5731 19.4458 34.6732C24.5486 35.2204 34.0326 36.0974 42.3959 36.0974C49.9908 36.0974 58.5355 35.3709 63.8615 34.8278C64.7921 34.7329 65.5786 35.5085 65.4947 36.4401L64.7959 44.1962C64.7364 44.8566 64.2472 45.398 63.5942 45.5125C58.6176 46.3852 51.4994 47.2124 42.396 47.2124C32.3178 47.2124 24.6728 46.1986 19.6732 45.2316Z" />
	<path fill="#EDEEF2" fill-rule="evenodd" clip-rule="evenodd"
		d="M144.735 78.0609C127.473 61.4486 105.218 54.9126 83.8444 52.8888C73.5825 51.9172 64.1004 58.4431 64.1004 68.7509V77.0628L43.1581 139.889C42.4379 142.05 43.2682 144.425 45.1781 145.666C46.6098 146.597 48.4173 146.732 49.9721 146.027L58.6023 142.108V143.84C58.6023 146.745 60.9572 149.1 63.862 149.1C65.7495 149.1 67.4922 148.089 68.4287 146.45L69.1852 145.126C73.1128 138.253 79.1036 132.789 86.3089 129.511V129.904C86.3089 132.855 88.701 135.247 91.6518 135.247C93.4982 135.247 95.2138 134.293 96.1889 132.725L96.9434 131.512C100.858 125.218 106.461 120.15 113.115 116.885L139.83 103.777C145.504 100.992 149.1 95.2227 149.1 88.9023C149.1 84.8443 147.659 80.8748 144.735 78.0609ZM84.0004 84.3932C89.1652 82.3385 93.1159 78.5108 91.4729 75.0654C89.8299 71.62 84.311 70.4926 79.1461 72.5474C67.0487 77.3601 72.9957 88.7712 84.0004 84.3932ZM102.856 97.7173C103.64 102.473 98.2766 106.157 92.1113 107.291C78.9752 109.706 75.833 93.8148 90.2736 91.159C96.4388 90.0251 102.072 92.9614 102.856 97.7173ZM72.1861 113.146C73.3597 115.902 70.5378 118.964 66.8486 120.608C58.9882 124.11 54.7403 114.982 63.3813 111.131C67.0705 109.488 71.0126 110.39 72.1861 113.146Z" />
</svg>