<svg width="229" height="57" viewBox="0 0 229 57" fill="none" xmlns="http://www.w3.org/2000/svg">
<path d="M45.72 46V4H57.24V27.64L73.5 4H84.36V46H72.84V22.36L56.58 46H45.72ZM122.975 54.4V46H91.7747V4H103.415V35.8H117.755V4H129.395V35.8H134.135L132.815 54.4H122.975ZM169.322 54.4V46H138.122V4H149.762V35.8H164.102V4H175.742V35.8H180.482L179.162 54.4H169.322ZM181.11 46L198.99 3.7H210.21L228.09 46H215.61L212.55 38.5H196.35L193.35 46H181.11ZM199.77 29.44H209.19L204.51 17.5L199.77 29.44Z" fill="white"/>
<path d="M0 4H12V46H1.07988e-05L0 4Z" fill="white"/>
<path d="M26 4H38V46H26V4Z" fill="white"/>
</svg>
