<svg width="130" height="44" viewBox="0 0 130 44" fill="none" xmlns="http://www.w3.org/2000/svg">
<path d="M12.98 43V11.2H0.38V0.999997H37.22V11.2H24.62V43H12.98ZM79.5894 37.48C75.2694 41.72 69.8894 43.84 63.4494 43.84C57.0094 43.84 51.6294 41.74 47.3094 37.54C43.0294 33.3 40.8894 28.12 40.8894 22C40.8894 15.92 43.0494 10.76 47.3694 6.52C51.7294 2.28 57.1294 0.159997 63.5694 0.159997C70.0094 0.159997 75.3694 2.28 79.6494 6.52C83.9694 10.72 86.1294 15.88 86.1294 22C86.1294 28.08 83.9494 33.24 79.5894 37.48ZM63.5694 33.34C66.7294 33.34 69.2894 32.24 71.2494 30.04C73.2494 27.84 74.2494 25.16 74.2494 22C74.2494 18.88 73.2294 16.22 71.1894 14.02C69.1494 11.78 66.5694 10.66 63.4494 10.66C60.3294 10.66 57.7694 11.76 55.7694 13.96C53.8094 16.16 52.8294 18.84 52.8294 22C52.8294 25.12 53.8294 27.8 55.8294 30.04C57.8694 32.24 60.4494 33.34 63.5694 33.34ZM92.1927 43V0.999997H129.813V43H118.173V11.2H103.833V43H92.1927Z" fill="white"/>
</svg>
