<svg width="24" height="24" viewBox="0 0 24 24" fill="none" xmlns="http://www.w3.org/2000/svg">
<path d="M12 2C7.58878 2 4 5.2493 4 9.24321C4 14.1998 11.1592 21.4763 11.464 21.7837C11.7503 22.0724 12.2502 22.0719 12.536 21.7837C12.8408 21.4763 20 14.1998 20 9.24321C19.9999 5.2493 16.4112 2 12 2ZM12 12.8875C9.7806 12.8875 7.97504 11.2527 7.97504 9.24321C7.97504 7.23376 9.78065 5.59899 12 5.59899C14.2194 5.59899 16.0249 7.2338 16.0249 9.24325C16.0249 11.2527 14.2194 12.8875 12 12.8875Z" fill="#FD3A69"/>
</svg>
