<svg width="18" height="18" viewBox="0 0 18 18" fill="none" xmlns="http://www.w3.org/2000/svg">
<path d="M9.00012 2.97748C11.853 2.97752 14.4806 4.45693 16.2882 6.95502C16.7093 7.53547 16.9015 8.28147 16.9015 8.99603C16.9015 9.71067 16.7094 10.4565 16.2882 11.037C14.4806 13.5351 11.853 15.0145 9.00012 15.0146C6.1471 15.0146 3.51967 13.5353 1.71204 11.037C1.29086 10.4565 1.09875 9.71066 1.09875 8.99603C1.09879 8.28132 1.29071 7.53553 1.71204 6.95502C3.51966 4.45696 6.1472 2.97748 9.00012 2.97748ZM9.00012 6.18744C7.44507 6.18744 6.18765 7.44489 6.18762 8.99994C6.18762 10.555 7.44505 11.8124 9.00012 11.8124C10.5552 11.8124 11.8126 10.555 11.8126 8.99994C11.8126 7.44492 10.5551 6.18748 9.00012 6.18744ZM9.00012 7.31244C9.93382 7.31248 10.6876 8.06624 10.6876 8.99994C10.6876 9.93367 9.93384 10.6874 9.00012 10.6874C8.06637 10.6874 7.31262 9.93369 7.31262 8.99994C7.31265 8.06621 8.06639 7.31244 9.00012 7.31244Z" fill="#AAAAAD"/>
</svg>
