<svg width="18" height="18" viewBox="0 0 18 18" fill="none" xmlns="http://www.w3.org/2000/svg">
<g clip-path="url(#clip0_3248_19139)">
<path d="M0.9375 9C0.9375 4.5472 4.5472 0.9375 9 0.9375C13.4528 0.9375 17.0625 4.5472 17.0625 9C17.0625 13.4528 13.4528 17.0625 9 17.0625C4.5472 17.0625 0.9375 13.4528 0.9375 9ZM5.60254 8.72754C5.38287 8.94721 5.38287 9.30279 5.60254 9.52246L7.07227 10.9922C7.58481 11.5047 8.41519 11.5047 8.92773 10.9922L12.3975 7.52246C12.6171 7.30279 12.6171 6.94721 12.3975 6.72754C12.1778 6.50787 11.8222 6.50787 11.6025 6.72754L8.13281 10.1973C8.0596 10.2704 7.9404 10.2704 7.86719 10.1973L6.39746 8.72754C6.17779 8.50787 5.82221 8.50787 5.60254 8.72754Z" fill="#10C425"/>
</g>
<defs>
<clipPath id="clip0_3248_19139">
<rect width="18" height="18" fill="white" transform="translate(0 18) rotate(-90)"/>
</clipPath>
</defs>
</svg>
