<svg width="24" height="24" viewBox="0 0 24 24" fill="none" xmlns="http://www.w3.org/2000/svg">
<path d="M14.3535 6.68622C14.3535 6.13394 13.9058 5.68622 13.3535 5.68622H11.6468L12.3138 4.35102L15.7821 3.35904C16.1102 3.26518 16.3003 2.92312 16.2066 2.59489V2.59489C16.1128 2.26639 15.7705 2.07618 15.442 2.17013L11.4518 3.31142L10.2657 5.68622H3C2.44771 5.68622 2 6.13394 2 6.68622V7.77793C2 8.33022 2.44772 8.77793 3 8.77793H13.3535C13.9058 8.77793 14.3535 8.33022 14.3535 7.77793V6.68622Z" fill="#FD3A69"/>
<path d="M10.6482 18.6714H21.7663V19.9081H10.6482V18.6714Z" fill="#FD3A69"/>
<path d="M8.17577 17.4349C8.17577 14.3842 10.1925 11.7963 12.9613 10.9367V10.9367C12.9977 10.4388 12.6035 10.0148 12.1043 10.0148H4.98224C4.10254 10.0148 3.41271 10.7701 3.49227 11.6462L4.35814 21.1809C4.4517 22.2111 5.31546 23 6.34994 23H8.50816C8.2972 22.6359 8.17577 22.2137 8.17577 21.7633V17.4349Z" fill="#FD3A69"/>
<path d="M9.41113 17.4347H23C23 14.3661 20.5062 11.8696 17.4409 11.8696H14.9702C11.9049 11.8696 9.41113 14.3661 9.41113 17.4347Z" fill="#FD3A69"/>
<path d="M9.41113 21.7631C9.41113 22.4451 9.96531 22.9998 10.6465 22.9998H21.7633C22.4445 22.9998 22.9987 22.4451 22.9987 21.7631V21.1448H9.41113V21.7631Z" fill="#FD3A69"/>
</svg>
