<svg width="18" height="18" viewBox="0 0 18 18" fill="none" xmlns="http://www.w3.org/2000/svg">
<path fill-rule="evenodd" clip-rule="evenodd" d="M5.42027 2.42027C6.36968 1.47087 7.65734 0.9375 9 0.9375C10.3427 0.9375 11.6303 1.47087 12.5797 2.42027C13.5291 3.36967 14.0625 4.65734 14.0625 6C14.0625 6.31066 13.8107 6.5625 13.5 6.5625C13.1893 6.5625 12.9375 6.31066 12.9375 6C12.9375 4.95571 12.5227 3.95419 11.7842 3.21577C11.0458 2.47734 10.0443 2.0625 9 2.0625C7.95571 2.0625 6.95419 2.47734 6.21577 3.21577C5.47734 3.95419 5.0625 4.95571 5.0625 6C5.0625 6.31066 4.81066 6.5625 4.5 6.5625C4.18934 6.5625 3.9375 6.31066 3.9375 6C3.9375 4.65734 4.47087 3.36967 5.42027 2.42027Z" fill="#AAAAAD"/>
<path d="M12.75 5.4375C15.1317 5.4375 17.0625 7.36827 17.0625 9.75V12.75C17.0625 15.1317 15.1317 17.0625 12.75 17.0625H5.25C2.86827 17.0625 0.9375 15.1317 0.9375 12.75V9.75C0.9375 7.36827 2.86827 5.4375 5.25 5.4375H12.75ZM9 9.1875C8.68934 9.1875 8.4375 9.43934 8.4375 9.75V12.75C8.4375 13.0607 8.68934 13.3125 9 13.3125C9.31066 13.3125 9.5625 13.0607 9.5625 12.75V9.75C9.5625 9.43934 9.31066 9.1875 9 9.1875Z" fill="#AAAAAD"/>
</svg>
