<svg width="24" height="24" viewBox="0 0 24 24" fill="none" xmlns="http://www.w3.org/2000/svg">
<path d="M13.2002 14.0059C15.2805 14.0059 17.2404 14.764 18.7188 16.1406C20.1898 17.5106 21 19.3188 21 21.2324C20.9999 21.5362 20.7315 21.782 20.4004 21.7822H3.59961C3.26846 21.782 3.00005 21.5362 3 21.2324C3 19.3188 3.81023 17.5106 5.28125 16.1406C6.7596 14.764 8.71956 14.0059 10.7998 14.0059H13.2002ZM12 3C14.9775 3 17.4002 5.22151 17.4004 7.95215C17.4004 10.6829 14.9776 12.9053 12 12.9053C9.02247 12.9052 6.59961 10.6829 6.59961 7.95215C6.59979 5.22153 9.02258 3.00004 12 3Z" fill="#C3C4C9"/>
</svg>
