<svg width="24" height="24" viewBox="0 0 24 24" fill="none" xmlns="http://www.w3.org/2000/svg">
<path d="M18.1331 7.36796V4.89051C18.1331 3.297 16.9836 2 15.5427 2H8.48048C7.03963 2 5.86645 3.29654 5.86645 4.89051V7.3675H3.13734C2.50923 7.3675 2 7.93068 2 8.62534V11.3597C2 12.0548 2.50923 12.6175 3.13734 12.6175H3.47627L4.71899 20.1678C4.81722 20.7655 5.28851 21.2 5.83779 21.2H18.1858C18.7355 21.2 19.206 20.7655 19.3046 20.1673L20.5465 12.6175H20.8627C21.4908 12.6175 22 12.0548 22 11.3597V8.62534C22 7.93068 21.4908 7.3675 20.8627 7.3675L18.1331 7.36796ZM7.97336 4.89051C7.97336 4.58654 8.20563 4.33013 8.48048 4.33013H15.544C15.8184 4.33013 16.0271 4.58654 16.0271 4.89051V7.3675H7.97336V4.89051ZM9.54658 16.7048C9.54658 17.1882 9.19712 17.5799 8.75997 17.5799C8.32324 17.5799 7.97336 17.1882 7.97336 16.7048V11.9009C7.97336 11.4175 8.32324 11.0263 8.75997 11.0263C9.19754 11.0263 9.54658 11.4184 9.54658 11.9009V16.7048ZM12.8001 16.7048C12.8001 17.1882 12.4502 17.5799 12.0135 17.5799C11.5768 17.5799 11.2265 17.1882 11.2265 16.7048V11.9009C11.2265 11.4175 11.5768 11.0263 12.0135 11.0263C12.4506 11.0263 12.8001 11.4184 12.8001 11.9009V16.7048ZM16.0536 16.7048C16.0536 17.1882 15.7037 17.5799 15.2674 17.5799C14.8303 17.5799 14.4804 17.1882 14.4804 16.7048V11.9009C14.4804 11.4175 14.8303 11.0263 15.2674 11.0263C15.7037 11.0263 16.0536 11.4184 16.0536 11.9009V16.7048Z" fill="#C3C4C9"/>
</svg>
