<svg width="18" height="18" viewBox="0 0 18 18" fill="none" xmlns="http://www.w3.org/2000/svg">
<path d="M11.7366 4.04599C10.8645 3.71422 9.94367 3.53998 9 3.53998C6.3525 3.53998 3.885 4.91146 2.1675 7.28517C1.4925 8.21488 1.4925 9.77758 2.1675 10.7073C2.50858 11.1787 2.87924 11.6105 3.27501 12M14.4936 5.77221C14.9769 6.21705 15.4257 6.723 15.8325 7.28517C16.5075 8.21488 16.5075 9.77758 15.8325 10.7073C14.115 13.081 11.6475 14.4525 9 14.4525C7.96075 14.4525 6.94924 14.2412 5.99994 13.8408" stroke="#AAAAAD" stroke-width="1.125" stroke-linecap="round" stroke-linejoin="round"/>
<path d="M14.2588 4.83783C15.0096 5.42271 15.6935 6.13335 16.2881 6.95502C16.7092 7.53547 16.9013 8.28147 16.9014 8.99603C16.9014 9.71067 16.7093 10.4565 16.2881 11.037C14.4805 13.5351 11.8529 15.0145 9 15.0146C7.41303 15.0146 5.8959 14.5569 4.55078 13.7206L14.2588 4.83783ZM9 2.97748C10.5308 2.9775 11.9965 3.40376 13.3057 4.18451L10.583 6.67572C10.132 6.36839 9.58721 6.18744 9 6.18744C7.44495 6.18744 6.18753 7.44489 6.1875 8.99994C6.1875 9.49769 6.31815 9.96512 6.54492 10.371L3.6123 13.0536C2.91178 12.4886 2.27248 11.8118 1.71191 11.037C1.29074 10.4565 1.09863 9.71066 1.09863 8.99603C1.09867 8.28132 1.29059 7.53553 1.71191 6.95502C3.51954 4.45696 6.14708 2.97748 9 2.97748ZM11.25 8.43744C10.9394 8.43744 10.6875 8.68931 10.6875 8.99994C10.6875 9.93369 9.93375 10.6874 9 10.6874C8.68936 10.6874 8.43753 10.9393 8.4375 11.2499C8.4375 11.5606 8.68934 11.8124 9 11.8124C10.5551 11.8124 11.8125 10.555 11.8125 8.99994C11.8125 8.68931 11.5606 8.43744 11.25 8.43744Z" fill="#AAAAAD"/>
<path fill-rule="evenodd" clip-rule="evenodd" d="M16.915 1.64534C17.1247 1.87453 17.1089 2.23034 16.8797 2.44005L14.4759 4.63952C14.2467 4.84923 13.8909 4.83344 13.6812 4.60425C13.4715 4.37505 13.4873 4.01925 13.7165 3.80953L16.1203 1.61006C16.3495 1.40035 16.7053 1.41614 16.915 1.64534ZM4.29852 13.1894C4.50824 13.4186 4.49244 13.7744 4.26325 13.9841L1.87972 16.165C1.65053 16.3747 1.29472 16.3589 1.08501 16.1298C0.875297 15.9006 0.89109 15.5448 1.12028 15.335L3.50381 13.1541C3.733 12.9444 4.08881 12.9602 4.29852 13.1894Z" fill="#AAAAAD"/>
</svg>
