<svg width="18" height="18" viewBox="0 0 18 18" fill="none" xmlns="http://www.w3.org/2000/svg">
<g clip-path="url(#clip0_3248_19515)">
<path d="M0.9375 9C0.9375 4.5472 4.5472 0.9375 9 0.9375C13.4528 0.9375 17.0625 4.5472 17.0625 9C17.0625 13.4528 13.4528 17.0625 9 17.0625C4.5472 17.0625 0.9375 13.4528 0.9375 9ZM6.35254 6.35254C6.13287 6.57221 6.13287 6.92779 6.35254 7.14746L8.20508 9L6.35254 10.8525C6.13289 11.0722 6.13288 11.4278 6.35254 11.6475C6.5722 11.8671 6.9278 11.8671 7.14746 11.6475L9 9.79492L10.8525 11.6475C11.0722 11.8671 11.4278 11.8671 11.6475 11.6475C11.8671 11.4278 11.8671 11.0722 11.6475 10.8525L9.79492 9L11.6475 7.14746C11.8671 6.92779 11.8671 6.57221 11.6475 6.35254C11.4278 6.13287 11.0722 6.13287 10.8525 6.35254L9 8.20508L7.14746 6.35254C6.92779 6.13287 6.57221 6.13287 6.35254 6.35254Z" fill="#FD3A69"/>
</g>
<defs>
<clipPath id="clip0_3248_19515">
<rect width="18" height="18" fill="white" transform="translate(0 18) rotate(-90)"/>
</clipPath>
</defs>
</svg>
